<mxfile host="Electron" agent="Mozilla/5.0 (Windows NT 10.0; Win64; x64) AppleWebKit/537.36 (KHTML, like Gecko) draw.io/22.0.2 Chrome/114.0.5735.289 Electron/25.8.4 Safari/537.36" modified="2024-11-18T21:22:45.849Z" version="22.0.2" etag="LwZ-I2B8HGF7wjVg-TI3" type="device">
  <diagram name="Página-1" id="LDlGI2wL8nB1ZD20A_zM">
    <mxGraphModel dx="2089" dy="1761" grid="1" gridSize="10" guides="1" tooltips="1" connect="1" arrows="1" fold="1" page="1" pageScale="1" pageWidth="827" pageHeight="1169" math="0" shadow="0">
      <root>
        <mxCell id="0" />
        <mxCell id="1" parent="0" />
        <mxCell id="1ll8VmlnmK8rNryx3zNu-1" value="&lt;font style=&quot;font-size: 14px;&quot;&gt;Usuario&lt;/font&gt;" style="ellipse;whiteSpace=wrap;html=1;aspect=fixed;fillColor=#D9D4C1;" parent="1" vertex="1">
          <mxGeometry x="175" y="235" width="100" height="100" as="geometry" />
        </mxCell>
        <mxCell id="1ll8VmlnmK8rNryx3zNu-2" value="&lt;font style=&quot;font-size: 14px;&quot;&gt;&lt;b&gt;Cuenta&lt;/b&gt;&lt;/font&gt;" style="ellipse;whiteSpace=wrap;html=1;aspect=fixed;fillColor=#FF99FF;" parent="1" vertex="1">
          <mxGeometry x="510" y="245" width="80" height="80" as="geometry" />
        </mxCell>
        <mxCell id="1ll8VmlnmK8rNryx3zNu-3" value="&lt;span style=&quot;font-size: 18px;&quot;&gt;&lt;b&gt;Vehículo&lt;/b&gt;&lt;/span&gt;" style="ellipse;whiteSpace=wrap;html=1;aspect=fixed;fillColor=#99FF99;" parent="1" vertex="1">
          <mxGeometry x="275" y="-15" width="170" height="170" as="geometry" />
        </mxCell>
        <mxCell id="1ll8VmlnmK8rNryx3zNu-7" value="&lt;font style=&quot;font-size: 10px;&quot;&gt;Registro&amp;nbsp;&lt;br&gt;número&lt;/font&gt;" style="ellipse;whiteSpace=wrap;html=1;aspect=fixed;fillColor=#E6D0DE;" parent="1" vertex="1">
          <mxGeometry x="30" y="-70" width="70" height="70" as="geometry" />
        </mxCell>
        <mxCell id="1ll8VmlnmK8rNryx3zNu-8" value="&lt;span style=&quot;font-size: 14px;&quot;&gt;Precio&lt;/span&gt;" style="ellipse;whiteSpace=wrap;html=1;aspect=fixed;fillColor=#97D077;" parent="1" vertex="1">
          <mxGeometry x="710" y="105" width="80" height="80" as="geometry" />
        </mxCell>
        <mxCell id="1ll8VmlnmK8rNryx3zNu-9" value="&lt;span style=&quot;font-size: 14px;&quot;&gt;&lt;b&gt;Alquiler&lt;/b&gt;&lt;/span&gt;" style="ellipse;whiteSpace=wrap;html=1;aspect=fixed;fillColor=#51942B;" parent="1" vertex="1">
          <mxGeometry x="550" y="10" width="110" height="110" as="geometry" />
        </mxCell>
        <mxCell id="1ll8VmlnmK8rNryx3zNu-10" value="" style="endArrow=classic;html=1;rounded=0;exitX=0;exitY=0.5;exitDx=0;exitDy=0;entryX=1;entryY=0.5;entryDx=0;entryDy=0;" parent="1" source="1ll8VmlnmK8rNryx3zNu-9" target="1ll8VmlnmK8rNryx3zNu-3" edge="1">
          <mxGeometry width="50" height="50" relative="1" as="geometry">
            <mxPoint x="510" y="250" as="sourcePoint" />
            <mxPoint x="520" y="250" as="targetPoint" />
          </mxGeometry>
        </mxCell>
        <mxCell id="1ll8VmlnmK8rNryx3zNu-11" value="" style="endArrow=classic;html=1;rounded=0;entryX=0.008;entryY=0.375;entryDx=0;entryDy=0;exitX=0.982;exitY=0.612;exitDx=0;exitDy=0;entryPerimeter=0;exitPerimeter=0;" parent="1" source="1ll8VmlnmK8rNryx3zNu-9" target="1ll8VmlnmK8rNryx3zNu-8" edge="1">
          <mxGeometry width="50" height="50" relative="1" as="geometry">
            <mxPoint x="575" y="300" as="sourcePoint" />
            <mxPoint x="760" y="240" as="targetPoint" />
          </mxGeometry>
        </mxCell>
        <mxCell id="1ll8VmlnmK8rNryx3zNu-12" value="" style="endArrow=classic;html=1;rounded=0;exitX=1;exitY=0.5;exitDx=0;exitDy=0;entryX=0;entryY=0.5;entryDx=0;entryDy=0;" parent="1" source="1ll8VmlnmK8rNryx3zNu-2" target="2JOUEScOw4AhZAm_bOXD-16" edge="1">
          <mxGeometry width="50" height="50" relative="1" as="geometry">
            <mxPoint x="640" y="420" as="sourcePoint" />
            <mxPoint x="690" y="370" as="targetPoint" />
          </mxGeometry>
        </mxCell>
        <mxCell id="1ll8VmlnmK8rNryx3zNu-13" value="" style="endArrow=classic;html=1;rounded=0;exitX=1;exitY=0.5;exitDx=0;exitDy=0;" parent="1" source="1ll8VmlnmK8rNryx3zNu-1" target="1ll8VmlnmK8rNryx3zNu-2" edge="1">
          <mxGeometry width="50" height="50" relative="1" as="geometry">
            <mxPoint x="600" y="350" as="sourcePoint" />
            <mxPoint x="650" y="300" as="targetPoint" />
          </mxGeometry>
        </mxCell>
        <mxCell id="1ll8VmlnmK8rNryx3zNu-15" value="&lt;div&gt;&lt;font style=&quot;font-size: 10px;&quot;&gt;tiene asociada&lt;/font&gt;&lt;/div&gt;" style="text;html=1;align=center;verticalAlign=middle;whiteSpace=wrap;rounded=0;" parent="1" vertex="1">
          <mxGeometry x="620" y="245" width="80" height="30" as="geometry" />
        </mxCell>
        <mxCell id="1ll8VmlnmK8rNryx3zNu-17" value="&lt;font style=&quot;font-size: 10px;&quot;&gt;posee&lt;/font&gt;" style="text;html=1;align=center;verticalAlign=middle;whiteSpace=wrap;rounded=0;" parent="1" vertex="1">
          <mxGeometry x="350" y="275" width="60" height="30" as="geometry" />
        </mxCell>
        <mxCell id="1ll8VmlnmK8rNryx3zNu-20" value="" style="endArrow=classic;html=1;rounded=0;exitX=0;exitY=0.5;exitDx=0;exitDy=0;entryX=0.934;entryY=0.697;entryDx=0;entryDy=0;entryPerimeter=0;" parent="1" source="1ll8VmlnmK8rNryx3zNu-3" target="1ll8VmlnmK8rNryx3zNu-7" edge="1">
          <mxGeometry width="50" height="50" relative="1" as="geometry">
            <mxPoint x="340" y="290" as="sourcePoint" />
            <mxPoint x="390" y="240" as="targetPoint" />
          </mxGeometry>
        </mxCell>
        <mxCell id="1ll8VmlnmK8rNryx3zNu-21" value="" style="endArrow=classic;html=1;rounded=0;entryX=1;entryY=0.5;entryDx=0;entryDy=0;exitX=0;exitY=0.5;exitDx=0;exitDy=0;" parent="1" source="1ll8VmlnmK8rNryx3zNu-3" target="1ll8VmlnmK8rNryx3zNu-35" edge="1">
          <mxGeometry width="50" height="50" relative="1" as="geometry">
            <mxPoint x="400" y="280" as="sourcePoint" />
            <mxPoint x="400" y="340" as="targetPoint" />
          </mxGeometry>
        </mxCell>
        <mxCell id="1ll8VmlnmK8rNryx3zNu-22" value="" style="endArrow=classic;html=1;rounded=0;entryX=0.5;entryY=0;entryDx=0;entryDy=0;exitX=0.5;exitY=1;exitDx=0;exitDy=0;" parent="1" source="1ll8VmlnmK8rNryx3zNu-8" target="2JOUEScOw4AhZAm_bOXD-16" edge="1">
          <mxGeometry width="50" height="50" relative="1" as="geometry">
            <mxPoint x="180" y="470" as="sourcePoint" />
            <mxPoint x="480" y="170" as="targetPoint" />
          </mxGeometry>
        </mxCell>
        <mxCell id="1ll8VmlnmK8rNryx3zNu-23" value="&lt;font style=&quot;font-size: 10px;&quot;&gt;genera&lt;/font&gt;" style="text;html=1;align=center;verticalAlign=middle;whiteSpace=wrap;rounded=0;" parent="1" vertex="1">
          <mxGeometry x="730" y="-55" width="60" height="30" as="geometry" />
        </mxCell>
        <mxCell id="1ll8VmlnmK8rNryx3zNu-24" value="&lt;font style=&quot;font-size: 10px;&quot;&gt;se compone de&lt;/font&gt;" style="text;html=1;align=center;verticalAlign=middle;whiteSpace=wrap;rounded=0;" parent="1" vertex="1">
          <mxGeometry x="170" y="125" width="80" height="30" as="geometry" />
        </mxCell>
        <mxCell id="1ll8VmlnmK8rNryx3zNu-26" value="&lt;font style=&quot;font-size: 10px;&quot;&gt;se compone de&lt;/font&gt;" style="text;html=1;align=center;verticalAlign=middle;whiteSpace=wrap;rounded=0;" parent="1" vertex="1">
          <mxGeometry x="162" y="-10" width="96" height="30" as="geometry" />
        </mxCell>
        <mxCell id="1ll8VmlnmK8rNryx3zNu-31" value="Puntos" style="ellipse;whiteSpace=wrap;html=1;aspect=fixed;fillColor=#00FF80;" parent="1" vertex="1">
          <mxGeometry x="480" y="140" width="60" height="60" as="geometry" />
        </mxCell>
        <mxCell id="1ll8VmlnmK8rNryx3zNu-32" value="" style="endArrow=classic;html=1;rounded=0;exitX=1;exitY=1;exitDx=0;exitDy=0;" parent="1" source="1ll8VmlnmK8rNryx3zNu-31" target="1ll8VmlnmK8rNryx3zNu-2" edge="1">
          <mxGeometry width="50" height="50" relative="1" as="geometry">
            <mxPoint x="170" y="510" as="sourcePoint" />
            <mxPoint x="220" y="460" as="targetPoint" />
          </mxGeometry>
        </mxCell>
        <mxCell id="1ll8VmlnmK8rNryx3zNu-33" value="&lt;font style=&quot;font-size: 10px;&quot;&gt;se añaden&lt;/font&gt;" style="text;html=1;align=center;verticalAlign=middle;whiteSpace=wrap;rounded=0;" parent="1" vertex="1">
          <mxGeometry x="540" y="190" width="60" height="30" as="geometry" />
        </mxCell>
        <mxCell id="1ll8VmlnmK8rNryx3zNu-35" value="&lt;font style=&quot;font-size: 10px;&quot;&gt;ID del vehiculo&lt;/font&gt;" style="ellipse;whiteSpace=wrap;html=1;aspect=fixed;fillColor=#E6D0DE;" parent="1" vertex="1">
          <mxGeometry x="80" y="10" width="70" height="70" as="geometry" />
        </mxCell>
        <mxCell id="1ll8VmlnmK8rNryx3zNu-36" value="&lt;span style=&quot;font-size: 10px;&quot;&gt;genera&lt;/span&gt;" style="text;html=1;align=center;verticalAlign=middle;whiteSpace=wrap;rounded=0;" parent="1" vertex="1">
          <mxGeometry x="435" y="-190" width="90" height="30" as="geometry" />
        </mxCell>
        <mxCell id="1ll8VmlnmK8rNryx3zNu-38" value="" style="endArrow=classic;html=1;rounded=0;exitX=0;exitY=0.5;exitDx=0;exitDy=0;entryX=0.955;entryY=0.375;entryDx=0;entryDy=0;entryPerimeter=0;" parent="1" source="1ll8VmlnmK8rNryx3zNu-3" edge="1" target="2JOUEScOw4AhZAm_bOXD-1">
          <mxGeometry width="50" height="50" relative="1" as="geometry">
            <mxPoint x="390" y="330" as="sourcePoint" />
            <mxPoint x="440" y="400" as="targetPoint" />
          </mxGeometry>
        </mxCell>
        <mxCell id="1ll8VmlnmK8rNryx3zNu-39" value="&lt;span style=&quot;font-size: 10px;&quot;&gt;tiene&lt;/span&gt;" style="text;html=1;align=center;verticalAlign=middle;whiteSpace=wrap;rounded=0;" parent="1" vertex="1">
          <mxGeometry x="670" y="70" width="60" height="30" as="geometry" />
        </mxCell>
        <mxCell id="1ll8VmlnmK8rNryx3zNu-40" value="" style="endArrow=classic;html=1;rounded=0;entryX=0.993;entryY=0.375;entryDx=0;entryDy=0;entryPerimeter=0;exitX=0.086;exitY=0.429;exitDx=0;exitDy=0;exitPerimeter=0;" parent="1" source="2JOUEScOw4AhZAm_bOXD-2" target="2JOUEScOw4AhZAm_bOXD-8" edge="1">
          <mxGeometry width="50" height="50" relative="1" as="geometry">
            <mxPoint x="130" y="205" as="sourcePoint" />
            <mxPoint x="-109.99572875253786" y="348.28427124746213" as="targetPoint" />
          </mxGeometry>
        </mxCell>
        <mxCell id="1ll8VmlnmK8rNryx3zNu-41" value="" style="endArrow=classic;html=1;rounded=0;exitX=0;exitY=1;exitDx=0;exitDy=0;entryX=1.013;entryY=0.425;entryDx=0;entryDy=0;entryPerimeter=0;" parent="1" source="1ll8VmlnmK8rNryx3zNu-7" target="2JOUEScOw4AhZAm_bOXD-8" edge="1">
          <mxGeometry width="50" height="50" relative="1" as="geometry">
            <mxPoint x="50" y="20" as="sourcePoint" />
            <mxPoint x="-10" y="130" as="targetPoint" />
          </mxGeometry>
        </mxCell>
        <mxCell id="1ll8VmlnmK8rNryx3zNu-42" value="&lt;font style=&quot;font-size: 10px;&quot;&gt;a utilizar&lt;/font&gt;" style="text;html=1;align=center;verticalAlign=middle;whiteSpace=wrap;rounded=0;" parent="1" vertex="1">
          <mxGeometry x="-25" y="175" width="60" height="30" as="geometry" />
        </mxCell>
        <mxCell id="1ll8VmlnmK8rNryx3zNu-43" value="&lt;font style=&quot;font-size: 10px;&quot;&gt;a utilizar&lt;/font&gt;" style="text;html=1;align=center;verticalAlign=middle;whiteSpace=wrap;rounded=0;" parent="1" vertex="1">
          <mxGeometry x="-50" width="60" height="30" as="geometry" />
        </mxCell>
        <mxCell id="2JOUEScOw4AhZAm_bOXD-1" value="&lt;font style=&quot;font-size: 10px;&quot;&gt;Disponibilidad&lt;/font&gt;" style="ellipse;whiteSpace=wrap;html=1;aspect=fixed;fillColor=#E6D0DE;" vertex="1" parent="1">
          <mxGeometry x="20" y="70" width="70" height="70" as="geometry" />
        </mxCell>
        <mxCell id="2JOUEScOw4AhZAm_bOXD-2" value="&lt;font style=&quot;font-size: 10px;&quot;&gt;Kilometros&lt;/font&gt;" style="ellipse;whiteSpace=wrap;html=1;aspect=fixed;fillColor=#E6D0DE;" vertex="1" parent="1">
          <mxGeometry x="50" y="155" width="70" height="70" as="geometry" />
        </mxCell>
        <mxCell id="2JOUEScOw4AhZAm_bOXD-3" value="&lt;font style=&quot;font-size: 10px;&quot;&gt;Fecha de pago&lt;/font&gt;" style="ellipse;whiteSpace=wrap;html=1;aspect=fixed;fillColor=#99FFCC;" vertex="1" parent="1">
          <mxGeometry x="620" y="-240" width="50" height="50" as="geometry" />
        </mxCell>
        <mxCell id="2JOUEScOw4AhZAm_bOXD-4" value="" style="endArrow=classic;html=1;rounded=0;exitX=0;exitY=0.5;exitDx=0;exitDy=0;entryX=1;entryY=0;entryDx=0;entryDy=0;" edge="1" parent="1" source="1ll8VmlnmK8rNryx3zNu-3" target="2JOUEScOw4AhZAm_bOXD-2">
          <mxGeometry width="50" height="50" relative="1" as="geometry">
            <mxPoint x="330" y="285" as="sourcePoint" />
            <mxPoint x="256" y="279" as="targetPoint" />
          </mxGeometry>
        </mxCell>
        <mxCell id="2JOUEScOw4AhZAm_bOXD-5" value="" style="endArrow=classic;html=1;rounded=0;entryX=0.332;entryY=0.967;entryDx=0;entryDy=0;entryPerimeter=0;" edge="1" parent="1" source="1ll8VmlnmK8rNryx3zNu-9" target="2JOUEScOw4AhZAm_bOXD-14">
          <mxGeometry width="50" height="50" relative="1" as="geometry">
            <mxPoint x="540" y="100" as="sourcePoint" />
            <mxPoint x="248" y="362" as="targetPoint" />
          </mxGeometry>
        </mxCell>
        <mxCell id="2JOUEScOw4AhZAm_bOXD-7" value="&lt;font style=&quot;font-size: 10px;&quot;&gt;se compone de&lt;/font&gt;" style="text;html=1;align=center;verticalAlign=middle;whiteSpace=wrap;rounded=0;" vertex="1" parent="1">
          <mxGeometry x="460" y="40" width="80" height="30" as="geometry" />
        </mxCell>
        <mxCell id="2JOUEScOw4AhZAm_bOXD-8" value="&lt;font style=&quot;font-size: 11px;&quot;&gt;Fechas&lt;/font&gt;" style="ellipse;whiteSpace=wrap;html=1;aspect=fixed;fillColor=#CCFFFF;" vertex="1" parent="1">
          <mxGeometry x="-110" y="40" width="70" height="70" as="geometry" />
        </mxCell>
        <mxCell id="2JOUEScOw4AhZAm_bOXD-9" value="" style="endArrow=classic;html=1;rounded=0;exitX=0;exitY=0.5;exitDx=0;exitDy=0;entryX=0.963;entryY=0.345;entryDx=0;entryDy=0;entryPerimeter=0;" edge="1" parent="1" source="2JOUEScOw4AhZAm_bOXD-1" target="2JOUEScOw4AhZAm_bOXD-8">
          <mxGeometry width="50" height="50" relative="1" as="geometry">
            <mxPoint x="-110" y="280" as="sourcePoint" />
            <mxPoint x="-39" y="165" as="targetPoint" />
          </mxGeometry>
        </mxCell>
        <mxCell id="2JOUEScOw4AhZAm_bOXD-10" value="" style="endArrow=classic;html=1;rounded=0;exitX=0;exitY=0.5;exitDx=0;exitDy=0;entryX=0.973;entryY=0.395;entryDx=0;entryDy=0;entryPerimeter=0;" edge="1" parent="1" source="1ll8VmlnmK8rNryx3zNu-35" target="2JOUEScOw4AhZAm_bOXD-8">
          <mxGeometry width="50" height="50" relative="1" as="geometry">
            <mxPoint x="70" y="50" as="sourcePoint" />
            <mxPoint x="10" y="160" as="targetPoint" />
          </mxGeometry>
        </mxCell>
        <mxCell id="2JOUEScOw4AhZAm_bOXD-12" value="" style="endArrow=classic;html=1;rounded=0;entryX=0.75;entryY=0.047;entryDx=0;entryDy=0;exitX=0.07;exitY=0.788;exitDx=0;exitDy=0;exitPerimeter=0;entryPerimeter=0;" edge="1" parent="1" source="1ll8VmlnmK8rNryx3zNu-9" target="1ll8VmlnmK8rNryx3zNu-31">
          <mxGeometry width="50" height="50" relative="1" as="geometry">
            <mxPoint x="560" y="90" as="sourcePoint" />
            <mxPoint x="360" y="465" as="targetPoint" />
          </mxGeometry>
        </mxCell>
        <mxCell id="2JOUEScOw4AhZAm_bOXD-13" value="&lt;font style=&quot;font-size: 10px;&quot;&gt;genera&lt;/font&gt;" style="text;html=1;align=center;verticalAlign=middle;whiteSpace=wrap;rounded=0;" vertex="1" parent="1">
          <mxGeometry x="640" y="-40" width="60" height="30" as="geometry" />
        </mxCell>
        <mxCell id="2JOUEScOw4AhZAm_bOXD-14" value="&lt;font style=&quot;font-size: 14px;&quot;&gt;&lt;b&gt;Factura&lt;/b&gt;&lt;/font&gt;" style="ellipse;whiteSpace=wrap;html=1;aspect=fixed;fillColor=#97D077;" vertex="1" parent="1">
          <mxGeometry x="630" y="-170" width="115" height="115" as="geometry" />
        </mxCell>
        <mxCell id="2JOUEScOw4AhZAm_bOXD-15" value="&lt;font style=&quot;font-size: 10px;&quot;&gt;genera&lt;/font&gt;" style="text;html=1;align=center;verticalAlign=middle;whiteSpace=wrap;rounded=0;" vertex="1" parent="1">
          <mxGeometry x="535" y="110" width="60" height="30" as="geometry" />
        </mxCell>
        <mxCell id="2JOUEScOw4AhZAm_bOXD-16" value="&lt;span style=&quot;font-size: 14px;&quot;&gt;Tarjeta&lt;/span&gt;" style="ellipse;whiteSpace=wrap;html=1;aspect=fixed;fillColor=#F7D263;" vertex="1" parent="1">
          <mxGeometry x="710" y="245" width="80" height="80" as="geometry" />
        </mxCell>
        <mxCell id="2JOUEScOw4AhZAm_bOXD-18" value="&lt;font style=&quot;font-size: 10px;&quot;&gt;se paga&lt;/font&gt;" style="text;html=1;align=center;verticalAlign=middle;whiteSpace=wrap;rounded=0;" vertex="1" parent="1">
          <mxGeometry x="695" y="190" width="50" height="30" as="geometry" />
        </mxCell>
        <mxCell id="2JOUEScOw4AhZAm_bOXD-19" value="&lt;font style=&quot;font-size: 10px;&quot;&gt;Estado&amp;nbsp;&lt;br&gt;factura&lt;/font&gt;" style="ellipse;whiteSpace=wrap;html=1;aspect=fixed;fillColor=#99FFCC;" vertex="1" parent="1">
          <mxGeometry x="540" y="-155" width="50" height="50" as="geometry" />
        </mxCell>
        <mxCell id="2JOUEScOw4AhZAm_bOXD-20" value="&lt;font style=&quot;font-size: 10px;&quot;&gt;Importe &lt;br&gt;total&lt;/font&gt;" style="ellipse;whiteSpace=wrap;html=1;aspect=fixed;fillColor=#99FFCC;" vertex="1" parent="1">
          <mxGeometry x="575" y="-205" width="50" height="50" as="geometry" />
        </mxCell>
        <mxCell id="2JOUEScOw4AhZAm_bOXD-21" value="" style="endArrow=classic;html=1;rounded=0;exitX=0;exitY=0;exitDx=0;exitDy=0;" edge="1" parent="1" source="2JOUEScOw4AhZAm_bOXD-14" target="2JOUEScOw4AhZAm_bOXD-33">
          <mxGeometry width="50" height="50" relative="1" as="geometry">
            <mxPoint x="120" y="440" as="sourcePoint" />
            <mxPoint x="20" y="390" as="targetPoint" />
          </mxGeometry>
        </mxCell>
        <mxCell id="2JOUEScOw4AhZAm_bOXD-22" value="" style="endArrow=classic;html=1;rounded=0;exitX=0;exitY=0;exitDx=0;exitDy=0;entryX=0.9;entryY=0.7;entryDx=0;entryDy=0;entryPerimeter=0;" edge="1" parent="1" source="2JOUEScOw4AhZAm_bOXD-14" target="2JOUEScOw4AhZAm_bOXD-20">
          <mxGeometry width="50" height="50" relative="1" as="geometry">
            <mxPoint x="130" y="450" as="sourcePoint" />
            <mxPoint x="30" y="400" as="targetPoint" />
          </mxGeometry>
        </mxCell>
        <mxCell id="2JOUEScOw4AhZAm_bOXD-23" value="" style="endArrow=classic;html=1;rounded=0;exitX=0;exitY=0;exitDx=0;exitDy=0;entryX=0.5;entryY=1;entryDx=0;entryDy=0;" edge="1" parent="1" source="2JOUEScOw4AhZAm_bOXD-14" target="2JOUEScOw4AhZAm_bOXD-3">
          <mxGeometry width="50" height="50" relative="1" as="geometry">
            <mxPoint x="140" y="460" as="sourcePoint" />
            <mxPoint x="260" y="250" as="targetPoint" />
          </mxGeometry>
        </mxCell>
        <mxCell id="2JOUEScOw4AhZAm_bOXD-25" value="" style="endArrow=classic;html=1;rounded=0;exitX=0;exitY=0;exitDx=0;exitDy=0;entryX=0.5;entryY=1;entryDx=0;entryDy=0;" edge="1" parent="1" source="2JOUEScOw4AhZAm_bOXD-14" target="2JOUEScOw4AhZAm_bOXD-29">
          <mxGeometry width="50" height="50" relative="1" as="geometry">
            <mxPoint x="130" y="450" as="sourcePoint" />
            <mxPoint x="30" y="400" as="targetPoint" />
          </mxGeometry>
        </mxCell>
        <mxCell id="2JOUEScOw4AhZAm_bOXD-26" value="" style="endArrow=classic;html=1;rounded=0;entryX=1;entryY=0.5;entryDx=0;entryDy=0;exitX=0;exitY=0;exitDx=0;exitDy=0;" edge="1" parent="1" source="2JOUEScOw4AhZAm_bOXD-14" target="2JOUEScOw4AhZAm_bOXD-19">
          <mxGeometry width="50" height="50" relative="1" as="geometry">
            <mxPoint x="610" y="-110" as="sourcePoint" />
            <mxPoint x="220" y="330" as="targetPoint" />
          </mxGeometry>
        </mxCell>
        <mxCell id="2JOUEScOw4AhZAm_bOXD-27" value="&lt;font style=&quot;font-size: 10px;&quot;&gt;se compone de&lt;/font&gt;" style="text;html=1;align=center;verticalAlign=middle;whiteSpace=wrap;rounded=0;" vertex="1" parent="1">
          <mxGeometry x="715" y="-210" width="80" height="30" as="geometry" />
        </mxCell>
        <mxCell id="2JOUEScOw4AhZAm_bOXD-29" value="&lt;span style=&quot;font-size: 10px;&quot;&gt;Impuesto IVA&lt;/span&gt;" style="ellipse;whiteSpace=wrap;html=1;aspect=fixed;fillColor=#99FFCC;" vertex="1" parent="1">
          <mxGeometry x="730" y="-290" width="50" height="50" as="geometry" />
        </mxCell>
        <mxCell id="2JOUEScOw4AhZAm_bOXD-30" value="&lt;div&gt;&lt;font style=&quot;font-size: 12px;&quot;&gt;Encuesta&lt;/font&gt;&lt;/div&gt;" style="ellipse;whiteSpace=wrap;html=1;aspect=fixed;fillColor=#66FF66;" vertex="1" parent="1">
          <mxGeometry x="700" y="-15" width="80" height="80" as="geometry" />
        </mxCell>
        <mxCell id="2JOUEScOw4AhZAm_bOXD-31" value="" style="endArrow=classic;html=1;rounded=0;exitX=0.784;exitY=0.897;exitDx=0;exitDy=0;entryX=0.5;entryY=0;entryDx=0;entryDy=0;exitPerimeter=0;" edge="1" parent="1" source="2JOUEScOw4AhZAm_bOXD-14" target="2JOUEScOw4AhZAm_bOXD-30">
          <mxGeometry width="50" height="50" relative="1" as="geometry">
            <mxPoint x="130" y="450" as="sourcePoint" />
            <mxPoint x="30" y="400" as="targetPoint" />
          </mxGeometry>
        </mxCell>
        <mxCell id="2JOUEScOw4AhZAm_bOXD-32" value="" style="endArrow=classic;html=1;rounded=0;entryX=1;entryY=1;entryDx=0;entryDy=0;exitX=0.341;exitY=0.02;exitDx=0;exitDy=0;exitPerimeter=0;" edge="1" parent="1" source="1ll8VmlnmK8rNryx3zNu-3" target="2JOUEScOw4AhZAm_bOXD-43">
          <mxGeometry width="50" height="50" relative="1" as="geometry">
            <mxPoint x="336" y="-12" as="sourcePoint" />
            <mxPoint x="250" y="-80" as="targetPoint" />
          </mxGeometry>
        </mxCell>
        <mxCell id="2JOUEScOw4AhZAm_bOXD-33" value="&lt;span style=&quot;font-size: 10px;&quot;&gt;ID factura&lt;/span&gt;" style="ellipse;whiteSpace=wrap;html=1;aspect=fixed;fillColor=#99FFCC;" vertex="1" parent="1">
          <mxGeometry x="675" y="-260" width="50" height="50" as="geometry" />
        </mxCell>
        <mxCell id="2JOUEScOw4AhZAm_bOXD-34" value="Emisión fisica o electrónica" style="ellipse;whiteSpace=wrap;html=1;aspect=fixed;fillColor=#FFCCE6;" vertex="1" parent="1">
          <mxGeometry x="340" y="-260" width="80" height="80" as="geometry" />
        </mxCell>
        <mxCell id="2JOUEScOw4AhZAm_bOXD-36" value="" style="endArrow=classic;html=1;rounded=0;entryX=1;entryY=0.375;entryDx=0;entryDy=0;entryPerimeter=0;" edge="1" parent="1" target="2JOUEScOw4AhZAm_bOXD-34">
          <mxGeometry width="50" height="50" relative="1" as="geometry">
            <mxPoint x="730" y="-270" as="sourcePoint" />
            <mxPoint x="50" y="380" as="targetPoint" />
          </mxGeometry>
        </mxCell>
        <mxCell id="2JOUEScOw4AhZAm_bOXD-37" value="" style="endArrow=classic;html=1;rounded=0;exitX=0;exitY=0;exitDx=0;exitDy=0;entryX=0.997;entryY=0.41;entryDx=0;entryDy=0;entryPerimeter=0;" edge="1" parent="1" source="2JOUEScOw4AhZAm_bOXD-19" target="2JOUEScOw4AhZAm_bOXD-34">
          <mxGeometry width="50" height="50" relative="1" as="geometry">
            <mxPoint x="30" y="325" as="sourcePoint" />
            <mxPoint x="-70" y="275" as="targetPoint" />
          </mxGeometry>
        </mxCell>
        <mxCell id="2JOUEScOw4AhZAm_bOXD-38" value="" style="endArrow=classic;html=1;rounded=0;exitX=0;exitY=0;exitDx=0;exitDy=0;entryX=1.007;entryY=0.4;entryDx=0;entryDy=0;entryPerimeter=0;" edge="1" parent="1" source="2JOUEScOw4AhZAm_bOXD-33" target="2JOUEScOw4AhZAm_bOXD-34">
          <mxGeometry width="50" height="50" relative="1" as="geometry">
            <mxPoint x="40" y="335" as="sourcePoint" />
            <mxPoint x="-60" y="285" as="targetPoint" />
          </mxGeometry>
        </mxCell>
        <mxCell id="2JOUEScOw4AhZAm_bOXD-39" value="" style="endArrow=classic;html=1;rounded=0;entryX=0.977;entryY=0.34;entryDx=0;entryDy=0;entryPerimeter=0;exitX=0.056;exitY=0.3;exitDx=0;exitDy=0;exitPerimeter=0;" edge="1" parent="1" source="2JOUEScOw4AhZAm_bOXD-20" target="2JOUEScOw4AhZAm_bOXD-34">
          <mxGeometry width="50" height="50" relative="1" as="geometry">
            <mxPoint x="100" y="320" as="sourcePoint" />
            <mxPoint x="-50" y="295" as="targetPoint" />
          </mxGeometry>
        </mxCell>
        <mxCell id="2JOUEScOw4AhZAm_bOXD-40" value="" style="endArrow=classic;html=1;rounded=0;entryX=0.977;entryY=0.37;entryDx=0;entryDy=0;entryPerimeter=0;" edge="1" parent="1" source="2JOUEScOw4AhZAm_bOXD-3" target="2JOUEScOw4AhZAm_bOXD-34">
          <mxGeometry width="50" height="50" relative="1" as="geometry">
            <mxPoint x="60" y="355" as="sourcePoint" />
            <mxPoint x="60" y="370" as="targetPoint" />
          </mxGeometry>
        </mxCell>
        <mxCell id="2JOUEScOw4AhZAm_bOXD-43" value="Venta" style="ellipse;whiteSpace=wrap;html=1;aspect=fixed;fillColor=#7693C4;" vertex="1" parent="1">
          <mxGeometry x="80" y="-190" width="95" height="95" as="geometry" />
        </mxCell>
        <mxCell id="2JOUEScOw4AhZAm_bOXD-44" value="Reparacion" style="ellipse;whiteSpace=wrap;html=1;aspect=fixed;fillColor=#3D993A;" vertex="1" parent="1">
          <mxGeometry x="230" y="-185" width="95" height="95" as="geometry" />
        </mxCell>
        <mxCell id="2JOUEScOw4AhZAm_bOXD-45" value="Compra" style="ellipse;whiteSpace=wrap;html=1;aspect=fixed;fillColor=#49E3D9;" vertex="1" parent="1">
          <mxGeometry x="-105" y="-185" width="105" height="105" as="geometry" />
        </mxCell>
        <mxCell id="2JOUEScOw4AhZAm_bOXD-46" value="Presupuesto" style="ellipse;whiteSpace=wrap;html=1;aspect=fixed;fillColor=#FFE599;" vertex="1" parent="1">
          <mxGeometry x="465" y="-65" width="70" height="70" as="geometry" />
        </mxCell>
        <mxCell id="2JOUEScOw4AhZAm_bOXD-49" value="&lt;span style=&quot;font-size: 10px;&quot;&gt;genera&lt;/span&gt;" style="text;html=1;align=center;verticalAlign=middle;whiteSpace=wrap;rounded=0;" vertex="1" parent="1">
          <mxGeometry x="500" y="-280" width="90" height="30" as="geometry" />
        </mxCell>
        <mxCell id="2JOUEScOw4AhZAm_bOXD-50" value="" style="endArrow=classic;html=1;rounded=0;exitX=0.351;exitY=0.025;exitDx=0;exitDy=0;exitPerimeter=0;" edge="1" parent="1" source="1ll8VmlnmK8rNryx3zNu-3" target="2JOUEScOw4AhZAm_bOXD-44">
          <mxGeometry width="50" height="50" relative="1" as="geometry">
            <mxPoint x="391.5" y="-40" as="sourcePoint" />
            <mxPoint x="300" y="-100" as="targetPoint" />
          </mxGeometry>
        </mxCell>
        <mxCell id="2JOUEScOw4AhZAm_bOXD-52" value="" style="endArrow=classic;html=1;rounded=0;entryX=0.978;entryY=0.633;entryDx=0;entryDy=0;entryPerimeter=0;exitX=0.346;exitY=0.02;exitDx=0;exitDy=0;exitPerimeter=0;" edge="1" parent="1" source="1ll8VmlnmK8rNryx3zNu-3" target="2JOUEScOw4AhZAm_bOXD-45">
          <mxGeometry width="50" height="50" relative="1" as="geometry">
            <mxPoint x="310" as="sourcePoint" />
            <mxPoint x="186" y="-65" as="targetPoint" />
          </mxGeometry>
        </mxCell>
        <mxCell id="2JOUEScOw4AhZAm_bOXD-53" value="" style="endArrow=classic;html=1;rounded=0;entryX=0;entryY=0.5;entryDx=0;entryDy=0;" edge="1" parent="1" source="2JOUEScOw4AhZAm_bOXD-44" target="2JOUEScOw4AhZAm_bOXD-46">
          <mxGeometry width="50" height="50" relative="1" as="geometry">
            <mxPoint x="70" y="30" as="sourcePoint" />
            <mxPoint x="-30" y="-20" as="targetPoint" />
          </mxGeometry>
        </mxCell>
        <mxCell id="2JOUEScOw4AhZAm_bOXD-57" value="" style="endArrow=classic;html=1;rounded=0;exitX=0;exitY=0.5;exitDx=0;exitDy=0;" edge="1" parent="1" source="1ll8VmlnmK8rNryx3zNu-9" target="1ll8VmlnmK8rNryx3zNu-1">
          <mxGeometry width="50" height="50" relative="1" as="geometry">
            <mxPoint x="400" y="190" as="sourcePoint" />
            <mxPoint x="300" y="140" as="targetPoint" />
          </mxGeometry>
        </mxCell>
        <mxCell id="2JOUEScOw4AhZAm_bOXD-58" value="&lt;font style=&quot;font-size: 10px;&quot;&gt;se compone de&lt;/font&gt;" style="text;html=1;align=center;verticalAlign=middle;whiteSpace=wrap;rounded=0;" vertex="1" parent="1">
          <mxGeometry x="355" y="185" width="80" height="30" as="geometry" />
        </mxCell>
        <mxCell id="2JOUEScOw4AhZAm_bOXD-59" value="" style="endArrow=classic;html=1;rounded=0;exitX=1;exitY=0.5;exitDx=0;exitDy=0;entryX=0.047;entryY=0.682;entryDx=0;entryDy=0;entryPerimeter=0;" edge="1" parent="1" source="2JOUEScOw4AhZAm_bOXD-46" target="2JOUEScOw4AhZAm_bOXD-14">
          <mxGeometry width="50" height="50" relative="1" as="geometry">
            <mxPoint x="445" y="-20" as="sourcePoint" />
            <mxPoint x="345" y="-70" as="targetPoint" />
          </mxGeometry>
        </mxCell>
        <mxCell id="2JOUEScOw4AhZAm_bOXD-60" value="&lt;span style=&quot;font-size: 10px;&quot;&gt;genera&lt;/span&gt;" style="text;html=1;align=center;verticalAlign=middle;whiteSpace=wrap;rounded=0;" vertex="1" parent="1">
          <mxGeometry x="520" y="-85" width="90" height="30" as="geometry" />
        </mxCell>
        <mxCell id="2JOUEScOw4AhZAm_bOXD-62" value="&lt;span style=&quot;font-size: 10px;&quot;&gt;tiene&lt;/span&gt;" style="text;html=1;align=center;verticalAlign=middle;whiteSpace=wrap;rounded=0;" vertex="1" parent="1">
          <mxGeometry x="365" y="-110" width="60" height="30" as="geometry" />
        </mxCell>
        <mxCell id="2JOUEScOw4AhZAm_bOXD-63" value="&lt;span style=&quot;font-size: 10px;&quot;&gt;genera&lt;/span&gt;" style="text;html=1;align=center;verticalAlign=middle;whiteSpace=wrap;rounded=0;" vertex="1" parent="1">
          <mxGeometry x="290" y="-75" width="90" height="30" as="geometry" />
        </mxCell>
        <mxCell id="2JOUEScOw4AhZAm_bOXD-64" value="&lt;span style=&quot;font-size: 10px;&quot;&gt;genera&lt;/span&gt;" style="text;html=1;align=center;verticalAlign=middle;whiteSpace=wrap;rounded=0;" vertex="1" parent="1">
          <mxGeometry x="200" y="-95" width="90" height="30" as="geometry" />
        </mxCell>
        <mxCell id="2JOUEScOw4AhZAm_bOXD-65" value="&lt;span style=&quot;font-size: 10px;&quot;&gt;genera&lt;/span&gt;" style="text;html=1;align=center;verticalAlign=middle;whiteSpace=wrap;rounded=0;" vertex="1" parent="1">
          <mxGeometry x="120" y="-65" width="90" height="30" as="geometry" />
        </mxCell>
        <mxCell id="2JOUEScOw4AhZAm_bOXD-71" value="&lt;b&gt;Mapa conceptual del alquiler de vehículos en EchoCar&lt;/b&gt;" style="shape=note;size=20;whiteSpace=wrap;html=1;fillColor=#FFF2CC;" vertex="1" parent="1">
          <mxGeometry x="-120" y="263.75" width="230" height="52.5" as="geometry" />
        </mxCell>
      </root>
    </mxGraphModel>
  </diagram>
</mxfile>
